Coordinates
version=1
nRows=14
nColumns=24
inDegrees=yes

Units are S.I. units (second, meters, Newtons, ...)
Angles are in degrees.

endheader
time	pelvis_tilt	pelvis_list	pelvis_rotation	pelvis_tx	pelvis_ty	pelvis_tz	hip_flexion_r	hip_adduction_r	hip_rotation_r	knee_angle_r	ankle_angle_r	subtalar_angle_r	mtp_angle_r	hip_flexion_l	hip_adduction_l	hip_rotation_l	knee_angle_l	ankle_angle_l	subtalar_angle_l	mtp_angle_l	lumbar_extension	lumbar_bending	lumbar_rotation
      0.96883333	      0.42379824	     -2.24691790	      1.51726394	     -0.29977049	      0.99385037	      0.30151296	      6.80266537	      7.67982149	     -1.14044963	    -14.86046772	      9.13041742	    -10.53345988	      1.63823740	     20.42043563	     -2.57882064	     -0.14117151	    -74.42496848	     -6.07556614	    -10.41885224	      0.33513590	      1.07927197	      5.24634179	      3.59139627
      0.97300000	      0.44044097	     -2.17833096	      1.32957072	     -0.29504463	      0.99417968	      0.30187335	      6.32516861	      7.62149859	     -1.08361941	    -14.57413346	      9.20937079	    -10.25613970	      1.65585058	     21.03471903	     -2.54281529	     -0.27320870	    -74.32058787	     -5.51258108	    -10.62593009	      0.28054984	      0.99865996	      5.17263801	      3.79607947
      0.97716667	      0.51553398	     -2.08246932	      1.15409636	     -0.29029940	      0.99459169	      0.30217822	      5.78015585	      7.51983886	     -1.08660650	    -14.27739457	      9.31415638	     -9.82081072	      1.69259279	     21.56052539	     -2.46488985	     -0.38535123	    -74.14671001	     -4.96491265	    -10.73403778	      0.16663305	      0.84528464	      5.08002588	      4.14386870
      0.98133333	      0.51285872	     -2.00366975	      0.94992538	     -0.28561345	      0.99483594	      0.30252711	      5.34806804	      7.43965042	     -1.03861778	    -14.03547270	      9.39458507	     -9.54367457	      1.71756351	     22.17266528	     -2.42197472	     -0.53043887	    -73.95715545	     -4.38911060	    -10.89154222	      0.10714952	      0.78187842	      4.99061336	      4.28893059
      0.98550000	      0.55803263	     -1.91121040	      0.77816054	     -0.28088562	      0.99513961	      0.30281359	      4.85247451	      7.33091181	     -1.07227639	    -13.76647366	      9.51173762	     -9.07080139	      1.76989223	     22.71282620	     -2.34721251	     -0.63135449	    -73.70635750	     -3.82729731	    -10.90414560	     -0.01459628	      0.66688185	      4.89632334	      4.60533724
      0.98966667	      0.57217132	     -1.83502172	      0.58438448	     -0.27619435	      0.99535286	      0.30311597	      4.40651778	      7.23951061	     -1.07909495	    -13.52441374	      9.61028047	     -8.66409788	      1.82909465	     23.27988303	     -2.29696054	     -0.74619027	    -73.42767093	     -3.25275042	    -10.93210053	     -0.13602988	      0.58407929	      4.81805330	      4.81954469
      0.99383333	      0.59925500	     -1.76299993	      0.39632207	     -0.27150888	      0.99556199	      0.30342249	      3.94212080	      7.15396311	     -1.06547728	    -13.27042079	      9.70079612	     -8.29841281	      1.88549572	     23.82023361	     -2.25594295	     -0.85689067	    -73.10401610	     -2.68245737	    -10.91135756	     -0.23412130	      0.48360384	      4.74104634	      5.01136711
      0.99800000	      0.58747262	     -1.69353670	      0.20447541	     -0.26683345	      0.99567709	      0.30371600	      3.53278694	      7.06571896	     -1.06283532	    -13.03985600	      9.79708631	     -7.91865113	      1.94883690	     24.39360180	     -2.21473927	     -0.96058694	    -72.74707522	     -2.11522776	    -10.85072397	     -0.33180258	      0.42807327	      4.67045053	      5.21737705
      1.00216667	      0.60124228	     -1.63435870	     -0.00392496	     -0.26217264	      0.99580503	      0.30404376	      3.09508964	      6.99247601	     -1.01425719	    -12.80475498	      9.86983627	     -7.62004563	      1.99089665	     24.92321246	     -2.19910813	     -1.08539893	    -72.34753564	     -1.55320156	    -10.81014986	     -0.38397182	      0.33621430	      4.59375182	      5.35263675
      1.00633333	      0.62607129	     -1.56716778	     -0.17993256	     -0.25747950	      0.99592483	      0.30429404	      2.64147122	      6.89870206	     -1.04258579	    -12.55859254	      9.97406971	     -7.18802250	      2.06416725	     25.42575812	     -2.15226857	     -1.16128366	    -71.89989701	     -1.00980924	    -10.61803822	     -0.47512821	      0.23892222	      4.53606755	      5.60976960
      1.01050000	      0.63376627	     -1.50112646	     -0.36938583	     -0.25280844	      0.99599487	      0.30455710	      2.21475311	      6.80793548	     -1.02320131	    -12.32774906	     10.06225947	     -6.81115819	      2.13788728	     25.93406350	     -2.11256281	     -1.25208428	    -71.41423677	     -0.48662215	    -10.47972676	     -0.56004695	      0.15291566	      4.46311886	      5.79454592
      1.01466667	      0.61633208	     -1.44157421	     -0.56037456	     -0.24813756	      0.99598545	      0.30482165	      1.82423647	      6.72271438	     -1.01396721	    -12.11311845	     10.15714134	     -6.43897291	      2.22052498	     26.45857405	     -2.08280587	     -1.34007019	    -70.89505062	      0.02086773	    -10.30523752	     -0.64964307	      0.10271905	      4.39864578	      5.98546537
      1.01883333	      0.62657416	     -1.38194667	     -0.77200817	     -0.24346909	      0.99600293	      0.30510220	      1.40228115	      6.63851514	     -0.94717306	    -11.89576612	     10.23210782	     -6.14758643	      2.27819472	     26.92908123	     -2.06292333	     -1.44821416	    -70.32520930	      0.50387971	    -10.14211668	     -0.70406146	      0.02114571	      4.34806436	      6.11749594
      1.02300000	      0.60677892	     -1.33974330	     -0.95955848	     -0.23880285	      0.99592689	      0.30535580	      1.01229204	      6.57271997	     -0.90156688	    -11.67268553	     10.31736089	     -5.83981578	      2.33971347	     27.43019172	     -2.05180455	     -1.51960523	    -69.73449707	      0.96433242	     -9.92181060	     -0.75890109	     -0.02926576	      4.30526409	      6.28843800
